<svg xmlns="http://www.w3.org/2000/svg" xmlns:xlink="http://www.w3.org/1999/xlink" width="1366" zoomAndPan="magnify" viewBox="0 0 1024.5 576" height="768" preserveAspectRatio="xMidYMid meet" version="1.0"><defs><g/><clipPath id="3bcb800bb5"><path d="M 0 0.140625 L 1024 0.140625 L 1024 575.859375 L 0 575.859375 Z M 0 0.140625 " clip-rule="nonzero"/></clipPath><clipPath id="967c89e9fa"><rect x="0" width="162" y="0" height="92"/></clipPath><clipPath id="51ea34eea1"><path d="M 396.855469 228.417969 L 626.992188 228.417969 L 626.992188 291.386719 L 396.855469 291.386719 Z M 396.855469 228.417969 " clip-rule="nonzero"/></clipPath><clipPath id="e3cc1b188e"><rect x="0" width="27" y="0" height="96"/></clipPath></defs><g clip-path="url(#3bcb800bb5)"><path fill="#ffffff" d="M 0 0.140625 L 1024 0.140625 L 1024 575.859375 L 0 575.859375 Z M 0 0.140625 " fill-opacity="1" fill-rule="nonzero"/><path fill="#ffde59" d="M 0 0.140625 L 1024 0.140625 L 1024 575.859375 L 0 575.859375 Z M 0 0.140625 " fill-opacity="1" fill-rule="nonzero"/></g><g transform="matrix(1, 0, 0, 1, 430, 257)"><g clip-path="url(#967c89e9fa)"><g fill="#000000" fill-opacity="1"><g transform="translate(1.210889, 65.261288)"><g><path d="M 12.78125 -15.71875 C 15.125 -15.71875 17.113281 -14.894531 18.75 -13.25 C 20.394531 -11.613281 21.21875 -9.617188 21.21875 -7.265625 C 21.21875 -4.960938 20.394531 -2.992188 18.75 -1.359375 C 17.113281 0.273438 15.125 1.09375 12.78125 1.09375 C 10.476562 1.09375 8.503906 0.273438 6.859375 -1.359375 C 5.222656 -2.992188 4.40625 -4.960938 4.40625 -7.265625 C 4.40625 -9.617188 5.222656 -11.613281 6.859375 -13.25 C 8.503906 -14.894531 10.476562 -15.71875 12.78125 -15.71875 Z M 12.78125 -15.71875 "/></g></g></g><g fill="#000000" fill-opacity="1"><g transform="translate(25.360622, 65.261288)"><g><path d="M 42.515625 -17.03125 L 15.203125 -17.03125 C 15.203125 -14.382812 16.054688 -12.425781 17.765625 -11.15625 C 19.484375 -9.882812 21.34375 -9.25 23.34375 -9.25 C 25.445312 -9.25 27.109375 -9.53125 28.328125 -10.09375 C 29.554688 -10.65625 30.957031 -11.769531 32.53125 -13.4375 L 41.921875 -8.734375 C 38.003906 -2.179688 31.492188 1.09375 22.390625 1.09375 C 16.710938 1.09375 11.84375 -0.847656 7.78125 -4.734375 C 3.71875 -8.628906 1.6875 -13.316406 1.6875 -18.796875 C 1.6875 -24.273438 3.71875 -28.972656 7.78125 -32.890625 C 11.84375 -36.804688 16.710938 -38.765625 22.390625 -38.765625 C 28.359375 -38.765625 33.210938 -37.039062 36.953125 -33.59375 C 40.703125 -30.144531 42.578125 -25.210938 42.578125 -18.796875 C 42.578125 -17.910156 42.554688 -17.320312 42.515625 -17.03125 Z M 15.5625 -24.234375 L 29.875 -24.234375 C 29.582031 -26.191406 28.8125 -27.695312 27.5625 -28.75 C 26.320312 -29.800781 24.722656 -30.328125 22.765625 -30.328125 C 20.609375 -30.328125 18.894531 -29.765625 17.625 -28.640625 C 16.351562 -27.515625 15.664062 -26.046875 15.5625 -24.234375 Z M 15.5625 -24.234375 "/></g></g></g><g fill="#000000" fill-opacity="1"><g transform="translate(68.155021, 65.261288)"><g><path d="M 5.640625 -58.65625 C 7.160156 -60.175781 8.972656 -60.9375 11.078125 -60.9375 C 13.191406 -60.9375 15.003906 -60.175781 16.515625 -58.65625 C 18.035156 -57.144531 18.796875 -55.335938 18.796875 -53.234375 C 18.796875 -51.128906 18.035156 -49.316406 16.515625 -47.796875 C 15.003906 -46.273438 13.191406 -45.515625 11.078125 -45.515625 C 8.972656 -45.515625 7.160156 -46.273438 5.640625 -47.796875 C 4.128906 -49.316406 3.375 -51.128906 3.375 -53.234375 C 3.375 -55.335938 4.128906 -57.144531 5.640625 -58.65625 Z M 4.40625 -37.671875 L 4.40625 3.296875 C 4.40625 6.722656 3.207031 8.4375 0.8125 8.4375 C 0.320312 8.4375 -0.191406 8.347656 -0.734375 8.171875 C -1.273438 8.003906 -1.71875 7.828125 -2.0625 7.640625 L -2.5 7.34375 L -6.53125 17.84375 C -6.4375 17.894531 -6.117188 18.039062 -5.578125 18.28125 C -5.035156 18.53125 -4.628906 18.710938 -4.359375 18.828125 C -4.097656 18.953125 -3.648438 19.113281 -3.015625 19.3125 C -2.378906 19.507812 -1.765625 19.65625 -1.171875 19.75 C -0.585938 19.84375 0.140625 19.9375 1.015625 20.03125 C 1.898438 20.132812 2.832031 20.1875 3.8125 20.1875 C 6.257812 20.1875 8.410156 19.757812 10.265625 18.90625 C 12.128906 18.050781 13.550781 16.898438 14.53125 15.453125 C 15.507812 14.015625 16.234375 12.5 16.703125 10.90625 C 17.171875 9.3125 17.40625 7.609375 17.40625 5.796875 L 17.40625 -37.671875 Z M 4.40625 -37.671875 "/></g></g></g><g fill="#000000" fill-opacity="1"><g transform="translate(88.487735, 65.261288)"><g><path d="M 6.96875 -4.65625 C 3.445312 -8.5 1.6875 -13.210938 1.6875 -18.796875 C 1.6875 -24.378906 3.445312 -29.101562 6.96875 -32.96875 C 10.5 -36.832031 14.976562 -38.765625 20.40625 -38.765625 C 25.40625 -38.765625 29.519531 -37.195312 32.75 -34.0625 L 32.75 -37.671875 L 45.734375 -37.671875 L 45.734375 0 L 32.890625 0 L 32.890625 -4.265625 L 32.75 -4.265625 C 29.519531 -0.691406 25.40625 1.09375 20.40625 1.09375 C 14.976562 1.09375 10.5 -0.820312 6.96875 -4.65625 Z M 18.015625 -25.1875 C 16.328125 -23.519531 15.484375 -21.390625 15.484375 -18.796875 C 15.484375 -16.203125 16.289062 -14.082031 17.90625 -12.4375 C 19.53125 -10.800781 21.660156 -9.984375 24.296875 -9.984375 C 26.847656 -9.984375 28.941406 -10.816406 30.578125 -12.484375 C 32.222656 -14.148438 33.046875 -16.253906 33.046875 -18.796875 C 33.046875 -21.390625 32.195312 -23.519531 30.5 -25.1875 C 28.8125 -26.851562 26.742188 -27.6875 24.296875 -27.6875 C 21.804688 -27.6875 19.710938 -26.851562 18.015625 -25.1875 Z M 18.015625 -25.1875 "/></g></g></g><g fill="#000000" fill-opacity="1"><g transform="translate(137.154476, 65.261288)"><g><path d="M 12.78125 -15.71875 C 15.125 -15.71875 17.113281 -14.894531 18.75 -13.25 C 20.394531 -11.613281 21.21875 -9.617188 21.21875 -7.265625 C 21.21875 -4.960938 20.394531 -2.992188 18.75 -1.359375 C 17.113281 0.273438 15.125 1.09375 12.78125 1.09375 C 10.476562 1.09375 8.503906 0.273438 6.859375 -1.359375 C 5.222656 -2.992188 4.40625 -4.960938 4.40625 -7.265625 C 4.40625 -9.617188 5.222656 -11.613281 6.859375 -13.25 C 8.503906 -14.894531 10.476562 -15.71875 12.78125 -15.71875 Z M 12.78125 -15.71875 "/></g></g></g></g></g><g clip-path="url(#51ea34eea1)"><path fill="#000000" d="M 511.925781 238.3125 L 626.996094 291.351562 L 512.367188 228.835938 L 512.175781 228.457031 L 511.925781 228.59375 L 511.675781 228.457031 L 511.484375 228.835938 L 396.855469 291.351562 L 511.925781 238.3125 " fill-opacity="1" fill-rule="nonzero"/></g><g transform="matrix(1, 0, 0, 1, 495, 210)"><g clip-path="url(#e3cc1b188e)"><g fill="#ff3131" fill-opacity="1"><g transform="translate(0.676695, 67.349206)"><g><path d="M 13.21875 -16.265625 C 15.65625 -16.265625 17.722656 -15.414062 19.421875 -13.71875 C 21.117188 -12.019531 21.96875 -9.957031 21.96875 -7.53125 C 21.96875 -5.144531 21.117188 -3.101562 19.421875 -1.40625 C 17.722656 0.289062 15.65625 1.140625 13.21875 1.140625 C 10.84375 1.140625 8.804688 0.289062 7.109375 -1.40625 C 5.410156 -3.101562 4.5625 -5.144531 4.5625 -7.53125 C 4.5625 -9.957031 5.410156 -12.019531 7.109375 -13.71875 C 8.804688 -15.414062 10.84375 -16.265625 13.21875 -16.265625 Z M 13.21875 -16.265625 "/></g></g></g></g></g></svg>