<svg xmlns="http://www.w3.org/2000/svg" xmlns:xlink="http://www.w3.org/1999/xlink" width="1920" zoomAndPan="magnify" viewBox="0 0 1440 809.999993" height="1080" preserveAspectRatio="xMidYMid meet" version="1.0"><defs><g/><clipPath id="de051d734e"><path d="M 0.714844 0.714844 L 579.285156 0.714844 L 579.285156 579.285156 L 0.714844 579.285156 Z M 0.714844 0.714844 " clip-rule="nonzero"/></clipPath><clipPath id="826eac94f2"><path d="M 0.875 1.097656 L 232.675781 1.097656 L 232.675781 232.902344 L 0.875 232.902344 Z M 0.875 1.097656 " clip-rule="nonzero"/></clipPath><clipPath id="0ee8e898a5"><path d="M 116.777344 1.097656 C 52.765625 1.097656 0.875 52.988281 0.875 117 C 0.875 181.011719 52.765625 232.902344 116.777344 232.902344 C 180.785156 232.902344 232.675781 181.011719 232.675781 117 C 232.675781 52.988281 180.785156 1.097656 116.777344 1.097656 Z M 116.777344 1.097656 " clip-rule="nonzero"/></clipPath><clipPath id="41e803d6aa"><path d="M 0.875 0.0976562 L 232.675781 0.0976562 L 232.675781 231.902344 L 0.875 231.902344 Z M 0.875 0.0976562 " clip-rule="nonzero"/></clipPath><clipPath id="0725e7ae3b"><path d="M 116.777344 0.0976562 C 52.765625 0.0976562 0.875 51.988281 0.875 116 C 0.875 180.011719 52.765625 231.902344 116.777344 231.902344 C 180.785156 231.902344 232.675781 180.011719 232.675781 116 C 232.675781 51.988281 180.785156 0.0976562 116.777344 0.0976562 Z M 116.777344 0.0976562 " clip-rule="nonzero"/></clipPath><clipPath id="d778d0860f"><rect x="0" width="233" y="0" height="232"/></clipPath><clipPath id="6dae701b67"><rect x="0" width="233" y="0" height="234"/></clipPath><clipPath id="87076d56eb"><path d="M 172.875 215.78125 L 404.304688 215.78125 L 404.304688 279.425781 L 172.875 279.425781 Z M 172.875 215.78125 " clip-rule="nonzero"/></clipPath><clipPath id="1862365a0a"><rect x="0" width="169" y="0" height="96"/></clipPath><clipPath id="73f2f6be9e"><rect x="0" width="27" y="0" height="96"/></clipPath><clipPath id="7239bf7f70"><rect x="0" width="580" y="0" height="580"/></clipPath></defs><g transform="matrix(1, 0, 0, 1, 430, 115)"><g clip-path="url(#7239bf7f70)"><g clip-path="url(#de051d734e)"><path fill="#ffde59" d="M 0.714844 0.714844 L 579.285156 0.714844 L 579.285156 579.285156 L 0.714844 579.285156 Z M 0.714844 0.714844 " fill-opacity="1" fill-rule="nonzero"/></g><g transform="matrix(1, 0, 0, 1, 172, 173)"><g clip-path="url(#6dae701b67)"><g clip-path="url(#826eac94f2)"><g clip-path="url(#0ee8e898a5)"><g transform="matrix(1, 0, 0, 1, 0.000000000000113687, 1)"><g clip-path="url(#d778d0860f)"><g clip-path="url(#41e803d6aa)"><g clip-path="url(#0725e7ae3b)"><path fill="#ffde59" d="M 0.875 0.0976562 L 232.675781 0.0976562 L 232.675781 231.902344 L 0.875 231.902344 Z M 0.875 0.0976562 " fill-opacity="1" fill-rule="nonzero"/></g></g></g></g></g></g></g></g><g clip-path="url(#87076d56eb)"><path fill="#000000" d="M 288.589844 225.78125 L 404.304688 279.382812 L 289.035156 216.207031 L 288.84375 215.824219 L 288.589844 215.960938 L 288.335938 215.824219 L 288.144531 216.207031 L 172.875 279.382812 L 288.589844 225.78125 " fill-opacity="1" fill-rule="nonzero"/></g><g transform="matrix(1, 0, 0, 1, 203, 239)"><g clip-path="url(#1862365a0a)"><g fill="#000000" fill-opacity="1"><g transform="translate(1.930979, 67.785294)"><g><path d="M 13.28125 -16.34375 C 15.726562 -16.34375 17.800781 -15.488281 19.5 -13.78125 C 21.207031 -12.070312 22.0625 -10 22.0625 -7.5625 C 22.0625 -5.164062 21.207031 -3.113281 19.5 -1.40625 C 17.800781 0.289062 15.726562 1.140625 13.28125 1.140625 C 10.894531 1.140625 8.847656 0.289062 7.140625 -1.40625 C 5.429688 -3.113281 4.578125 -5.164062 4.578125 -7.5625 C 4.578125 -10 5.429688 -12.070312 7.140625 -13.78125 C 8.847656 -15.488281 10.894531 -16.34375 13.28125 -16.34375 Z M 13.28125 -16.34375 "/></g></g></g><g fill="#000000" fill-opacity="1"><g transform="translate(27.049821, 67.785294)"><g><path d="M 44.21875 -17.71875 L 15.8125 -17.71875 C 15.8125 -14.96875 16.703125 -12.929688 18.484375 -11.609375 C 20.265625 -10.285156 22.195312 -9.625 24.28125 -9.625 C 26.46875 -9.625 28.195312 -9.914062 29.46875 -10.5 C 30.75 -11.082031 32.203125 -12.238281 33.828125 -13.96875 L 43.59375 -9.09375 C 39.53125 -2.269531 32.765625 1.140625 23.296875 1.140625 C 17.390625 1.140625 12.320312 -0.878906 8.09375 -4.921875 C 3.863281 -8.972656 1.75 -13.847656 1.75 -19.546875 C 1.75 -25.242188 3.863281 -30.128906 8.09375 -34.203125 C 12.320312 -38.273438 17.390625 -40.3125 23.296875 -40.3125 C 29.503906 -40.3125 34.550781 -38.515625 38.4375 -34.921875 C 42.332031 -31.335938 44.28125 -26.210938 44.28125 -19.546875 C 44.28125 -18.628906 44.257812 -18.019531 44.21875 -17.71875 Z M 16.1875 -25.203125 L 31.078125 -25.203125 C 30.773438 -27.234375 29.972656 -28.796875 28.671875 -29.890625 C 27.367188 -30.984375 25.703125 -31.53125 23.671875 -31.53125 C 21.429688 -31.53125 19.648438 -30.945312 18.328125 -29.78125 C 17.003906 -28.613281 16.289062 -27.085938 16.1875 -25.203125 Z M 16.1875 -25.203125 "/></g></g></g><g fill="#000000" fill-opacity="1"><g transform="translate(71.561524, 67.785294)"><g><path d="M 5.875 -61 C 7.457031 -62.582031 9.34375 -63.375 11.53125 -63.375 C 13.71875 -63.375 15.597656 -62.582031 17.171875 -61 C 18.753906 -59.425781 19.546875 -57.546875 19.546875 -55.359375 C 19.546875 -53.171875 18.753906 -51.285156 17.171875 -49.703125 C 15.597656 -48.128906 13.71875 -47.34375 11.53125 -47.34375 C 9.34375 -47.34375 7.457031 -48.128906 5.875 -49.703125 C 4.300781 -51.285156 3.515625 -53.171875 3.515625 -55.359375 C 3.515625 -57.546875 4.300781 -59.425781 5.875 -61 Z M 4.578125 -39.171875 L 4.578125 3.4375 C 4.578125 7 3.332031 8.78125 0.84375 8.78125 C 0.332031 8.78125 -0.203125 8.691406 -0.765625 8.515625 C -1.328125 8.335938 -1.785156 8.144531 -2.140625 7.9375 L -2.59375 7.640625 L -6.796875 18.5625 C -6.691406 18.601562 -6.359375 18.75 -5.796875 19 C -5.242188 19.257812 -4.828125 19.453125 -4.546875 19.578125 C -4.265625 19.710938 -3.789062 19.878906 -3.125 20.078125 C -2.46875 20.285156 -1.832031 20.4375 -1.21875 20.53125 C -0.613281 20.632812 0.144531 20.738281 1.0625 20.84375 C 1.976562 20.945312 2.945312 21 3.96875 21 C 6.507812 21 8.75 20.550781 10.6875 19.65625 C 12.625 18.769531 14.097656 17.578125 15.109375 16.078125 C 16.128906 14.578125 16.878906 13 17.359375 11.34375 C 17.847656 9.6875 18.09375 7.914062 18.09375 6.03125 L 18.09375 -39.171875 Z M 4.578125 -39.171875 "/></g></g></g><g fill="#000000" fill-opacity="1"><g transform="translate(92.710172, 67.785294)"><g><path d="M 7.25 -4.84375 C 3.582031 -8.84375 1.75 -13.742188 1.75 -19.546875 C 1.75 -25.347656 3.582031 -30.257812 7.25 -34.28125 C 10.914062 -38.300781 15.578125 -40.3125 21.234375 -40.3125 C 26.421875 -40.3125 30.695312 -38.6875 34.0625 -35.4375 L 34.0625 -39.171875 L 47.578125 -39.171875 L 47.578125 0 L 34.203125 0 L 34.203125 -4.421875 L 34.0625 -4.421875 C 30.695312 -0.710938 26.421875 1.140625 21.234375 1.140625 C 15.578125 1.140625 10.914062 -0.851562 7.25 -4.84375 Z M 18.734375 -26.1875 C 16.984375 -24.457031 16.109375 -22.242188 16.109375 -19.546875 C 16.109375 -16.847656 16.945312 -14.644531 18.625 -12.9375 C 20.3125 -11.238281 22.53125 -10.390625 25.28125 -10.390625 C 27.925781 -10.390625 30.097656 -11.253906 31.796875 -12.984375 C 33.503906 -14.710938 34.359375 -16.898438 34.359375 -19.546875 C 34.359375 -22.242188 33.476562 -24.457031 31.71875 -26.1875 C 29.96875 -27.914062 27.820312 -28.78125 25.28125 -28.78125 C 22.675781 -28.78125 20.492188 -27.914062 18.734375 -26.1875 Z M 18.734375 -26.1875 "/></g></g></g><g fill="#000000" fill-opacity="1"><g transform="translate(143.329868, 67.785294)"><g><path d="M 13.28125 -16.34375 C 15.726562 -16.34375 17.800781 -15.488281 19.5 -13.78125 C 21.207031 -12.070312 22.0625 -10 22.0625 -7.5625 C 22.0625 -5.164062 21.207031 -3.113281 19.5 -1.40625 C 17.800781 0.289062 15.726562 1.140625 13.28125 1.140625 C 10.894531 1.140625 8.847656 0.289062 7.140625 -1.40625 C 5.429688 -3.113281 4.578125 -5.164062 4.578125 -7.5625 C 4.578125 -10 5.429688 -12.070312 7.140625 -13.78125 C 8.847656 -15.488281 10.894531 -16.34375 13.28125 -16.34375 Z M 13.28125 -16.34375 "/></g></g></g></g></g><g transform="matrix(1, 0, 0, 1, 272, 191)"><g clip-path="url(#73f2f6be9e)"><g fill="#ff3131" fill-opacity="1"><g transform="translate(0.961194, 67.717299)"><g><path d="M 13.296875 -16.34375 C 15.734375 -16.34375 17.804688 -15.488281 19.515625 -13.78125 C 21.222656 -12.082031 22.078125 -10.007812 22.078125 -7.5625 C 22.078125 -5.164062 21.222656 -3.113281 19.515625 -1.40625 C 17.804688 0.289062 15.734375 1.140625 13.296875 1.140625 C 10.898438 1.140625 8.847656 0.289062 7.140625 -1.40625 C 5.429688 -3.113281 4.578125 -5.164062 4.578125 -7.5625 C 4.578125 -10.007812 5.429688 -12.082031 7.140625 -13.78125 C 8.847656 -15.488281 10.898438 -16.34375 13.296875 -16.34375 Z M 13.296875 -16.34375 "/></g></g></g></g></g></g></g></svg>