<svg xmlns="http://www.w3.org/2000/svg" xmlns:xlink="http://www.w3.org/1999/xlink" width="1366" zoomAndPan="magnify" viewBox="0 0 1024.5 576" height="768" preserveAspectRatio="xMidYMid meet" version="1.0"><defs><g/><clipPath id="991796b2c9"><path d="M 0 0.140625 L 1024 0.140625 L 1024 575.859375 L 0 575.859375 Z M 0 0.140625 " clip-rule="nonzero"/></clipPath><clipPath id="70170b760f"><rect x="0" width="191" y="0" height="108"/></clipPath><clipPath id="6b5901f1e5"><path d="M 369.414062 214.125 L 640.03125 214.125 L 640.03125 288.335938 L 369.414062 288.335938 Z M 369.414062 214.125 " clip-rule="nonzero"/></clipPath><clipPath id="c4be6aebd9"><rect x="0" width="30" y="0" height="112"/></clipPath></defs><g clip-path="url(#991796b2c9)"><path fill="#ffffff" d="M 0 0.140625 L 1024 0.140625 L 1024 575.859375 L 0 575.859375 Z M 0 0.140625 " fill-opacity="1" fill-rule="nonzero"/><path fill="#ffde59" d="M 0 0.140625 L 1024 0.140625 L 1024 575.859375 L 0 575.859375 Z M 0 0.140625 " fill-opacity="1" fill-rule="nonzero"/></g><g transform="matrix(1, 0, 0, 1, 415, 258)"><g clip-path="url(#70170b760f)"><g fill="#000000" fill-opacity="1"><g transform="translate(2.100521, 76.850449)"><g><path d="M 15 -18.453125 C 17.757812 -18.453125 20.101562 -17.488281 22.03125 -15.5625 C 23.957031 -13.632812 24.921875 -11.289062 24.921875 -8.53125 C 24.921875 -5.832031 23.957031 -3.519531 22.03125 -1.59375 C 20.101562 0.332031 17.757812 1.296875 15 1.296875 C 12.300781 1.296875 9.988281 0.332031 8.0625 -1.59375 C 6.132812 -3.519531 5.171875 -5.832031 5.171875 -8.53125 C 5.171875 -11.289062 6.132812 -13.632812 8.0625 -15.5625 C 9.988281 -17.488281 12.300781 -18.453125 15 -18.453125 Z M 15 -18.453125 "/></g></g></g><g fill="#000000" fill-opacity="1"><g transform="translate(30.468162, 76.850449)"><g><path d="M 49.921875 -20 L 17.84375 -20 C 17.84375 -16.894531 18.847656 -14.59375 20.859375 -13.09375 C 22.878906 -11.601562 25.066406 -10.859375 27.421875 -10.859375 C 29.890625 -10.859375 31.84375 -11.1875 33.28125 -11.84375 C 34.71875 -12.507812 36.359375 -13.820312 38.203125 -15.78125 L 49.234375 -10.265625 C 44.640625 -2.554688 36.992188 1.296875 26.296875 1.296875 C 19.628906 1.296875 13.910156 -0.988281 9.140625 -5.5625 C 4.367188 -10.132812 1.984375 -15.640625 1.984375 -22.078125 C 1.984375 -28.515625 4.367188 -34.03125 9.140625 -38.625 C 13.910156 -43.226562 19.628906 -45.53125 26.296875 -45.53125 C 33.316406 -45.53125 39.023438 -43.503906 43.421875 -39.453125 C 47.816406 -35.398438 50.015625 -29.609375 50.015625 -22.078125 C 50.015625 -21.046875 49.984375 -20.351562 49.921875 -20 Z M 18.28125 -28.453125 L 35.09375 -28.453125 C 34.75 -30.753906 33.84375 -32.519531 32.375 -33.75 C 30.914062 -34.988281 29.035156 -35.609375 26.734375 -35.609375 C 24.203125 -35.609375 22.1875 -34.945312 20.6875 -33.625 C 19.195312 -32.300781 18.394531 -30.578125 18.28125 -28.453125 Z M 18.28125 -28.453125 "/></g></g></g><g fill="#000000" fill-opacity="1"><g transform="translate(80.736881, 76.850449)"><g><path d="M 6.640625 -68.90625 C 8.421875 -70.6875 10.546875 -71.578125 13.015625 -71.578125 C 15.492188 -71.578125 17.625 -70.6875 19.40625 -68.90625 C 21.1875 -67.125 22.078125 -64.992188 22.078125 -62.515625 C 22.078125 -60.046875 21.1875 -57.921875 19.40625 -56.140625 C 17.625 -54.359375 15.492188 -53.46875 13.015625 -53.46875 C 10.546875 -53.46875 8.421875 -54.359375 6.640625 -56.140625 C 4.859375 -57.921875 3.96875 -60.046875 3.96875 -62.515625 C 3.96875 -64.992188 4.859375 -67.125 6.640625 -68.90625 Z M 5.171875 -44.234375 L 5.171875 3.875 C 5.171875 7.90625 3.765625 9.921875 0.953125 9.921875 C 0.378906 9.921875 -0.222656 9.816406 -0.859375 9.609375 C -1.492188 9.410156 -2.015625 9.195312 -2.421875 8.96875 L -2.9375 8.625 L -7.671875 20.953125 C -7.554688 21.015625 -7.179688 21.1875 -6.546875 21.46875 C -5.921875 21.757812 -5.445312 21.972656 -5.125 22.109375 C -4.8125 22.253906 -4.28125 22.441406 -3.53125 22.671875 C -2.789062 22.910156 -2.070312 23.085938 -1.375 23.203125 C -0.6875 23.316406 0.171875 23.429688 1.203125 23.546875 C 2.242188 23.660156 3.335938 23.71875 4.484375 23.71875 C 7.359375 23.71875 9.882812 23.210938 12.0625 22.203125 C 14.25 21.203125 15.914062 19.851562 17.0625 18.15625 C 18.21875 16.457031 19.066406 14.671875 19.609375 12.796875 C 20.160156 10.929688 20.4375 8.9375 20.4375 6.8125 L 20.4375 -44.234375 Z M 5.171875 -44.234375 "/></g></g></g><g fill="#000000" fill-opacity="1"><g transform="translate(104.620835, 76.850449)"><g><path d="M 8.1875 -5.46875 C 4.050781 -9.988281 1.984375 -15.523438 1.984375 -22.078125 C 1.984375 -28.628906 4.050781 -34.175781 8.1875 -38.71875 C 12.332031 -43.257812 17.59375 -45.53125 23.96875 -45.53125 C 29.832031 -45.53125 34.660156 -43.691406 38.453125 -40.015625 L 38.453125 -44.234375 L 53.71875 -44.234375 L 53.71875 0 L 38.640625 0 L 38.640625 -5 L 38.453125 -5 C 34.660156 -0.800781 29.832031 1.296875 23.96875 1.296875 C 17.59375 1.296875 12.332031 -0.957031 8.1875 -5.46875 Z M 21.171875 -29.578125 C 19.191406 -27.617188 18.203125 -25.113281 18.203125 -22.0625 C 18.203125 -19.019531 19.148438 -16.535156 21.046875 -14.609375 C 22.941406 -12.691406 25.441406 -11.734375 28.546875 -11.734375 C 31.535156 -11.734375 33.992188 -12.707031 35.921875 -14.65625 C 37.847656 -16.613281 38.8125 -19.085938 38.8125 -22.078125 C 38.8125 -25.117188 37.816406 -27.617188 35.828125 -29.578125 C 33.847656 -31.535156 31.421875 -32.515625 28.546875 -32.515625 C 25.609375 -32.515625 23.148438 -31.535156 21.171875 -29.578125 Z M 21.171875 -29.578125 "/></g></g></g><g fill="#000000" fill-opacity="1"><g transform="translate(161.787538, 76.850449)"><g><path d="M 15 -18.453125 C 17.757812 -18.453125 20.101562 -17.488281 22.03125 -15.5625 C 23.957031 -13.632812 24.921875 -11.289062 24.921875 -8.53125 C 24.921875 -5.832031 23.957031 -3.519531 22.03125 -1.59375 C 20.101562 0.332031 17.757812 1.296875 15 1.296875 C 12.300781 1.296875 9.988281 0.332031 8.0625 -1.59375 C 6.132812 -3.519531 5.171875 -5.832031 5.171875 -8.53125 C 5.171875 -11.289062 6.132812 -13.632812 8.0625 -15.5625 C 9.988281 -17.488281 12.300781 -18.453125 15 -18.453125 Z M 15 -18.453125 "/></g></g></g></g></g><g clip-path="url(#6b5901f1e5)"><path fill="#000000" d="M 504.722656 225.785156 L 640.035156 288.289062 L 505.246094 214.617188 L 505.019531 214.171875 L 504.722656 214.332031 L 504.429688 214.171875 L 504.203125 214.617188 L 369.414062 288.289062 L 504.722656 225.785156 " fill-opacity="1" fill-rule="nonzero"/></g><g transform="matrix(1, 0, 0, 1, 492, 202)"><g clip-path="url(#c4be6aebd9)"><g fill="#ff3131" fill-opacity="1"><g transform="translate(0.292897, 78.61147)"><g><path d="M 15.53125 -19.109375 C 18.382812 -19.109375 20.804688 -18.109375 22.796875 -16.109375 C 24.796875 -14.117188 25.796875 -11.695312 25.796875 -8.84375 C 25.796875 -6.039062 24.796875 -3.640625 22.796875 -1.640625 C 20.804688 0.347656 18.382812 1.34375 15.53125 1.34375 C 12.738281 1.34375 10.34375 0.347656 8.34375 -1.640625 C 6.351562 -3.640625 5.359375 -6.039062 5.359375 -8.84375 C 5.359375 -11.695312 6.351562 -14.117188 8.34375 -16.109375 C 10.34375 -18.109375 12.738281 -19.109375 15.53125 -19.109375 Z M 15.53125 -19.109375 "/></g></g></g></g></g></svg>