<svg xmlns="http://www.w3.org/2000/svg" xmlns:xlink="http://www.w3.org/1999/xlink" width="1366" zoomAndPan="magnify" viewBox="0 0 1024.5 576" height="768" preserveAspectRatio="xMidYMid meet" version="1.0"><defs><g/><clipPath id="9bda37b1b2"><rect x="0" width="202" y="0" height="115"/></clipPath><clipPath id="1967cfab61"><path d="M 368.757812 214.003906 L 655.867188 214.003906 L 655.867188 292.71875 L 368.757812 292.71875 Z M 368.757812 214.003906 " clip-rule="nonzero"/></clipPath><clipPath id="d2dd6c16c6"><rect x="0" width="33" y="0" height="119"/></clipPath></defs><g transform="matrix(1, 0, 0, 1, 409, 253)"><g clip-path="url(#9bda37b1b2)"><g fill="#ffde59" fill-opacity="1"><g transform="translate(2.393031, 81.278321)"><g><path d="M 15.90625 -19.5625 C 18.832031 -19.5625 21.316406 -18.539062 23.359375 -16.5 C 25.398438 -14.457031 26.421875 -11.972656 26.421875 -9.046875 C 26.421875 -6.179688 25.398438 -3.726562 23.359375 -1.6875 C 21.316406 0.351562 18.832031 1.375 15.90625 1.375 C 13.039062 1.375 10.585938 0.351562 8.546875 -1.6875 C 6.503906 -3.726562 5.484375 -6.179688 5.484375 -9.046875 C 5.484375 -11.972656 6.503906 -14.457031 8.546875 -16.5 C 10.585938 -18.539062 13.039062 -19.5625 15.90625 -19.5625 Z M 15.90625 -19.5625 "/></g></g></g><g fill="#ffde59" fill-opacity="1"><g transform="translate(32.46677, 81.278321)"><g><path d="M 52.9375 -21.203125 L 18.921875 -21.203125 C 18.921875 -17.910156 19.988281 -15.472656 22.125 -13.890625 C 24.257812 -12.304688 26.578125 -11.515625 29.078125 -11.515625 C 31.691406 -11.515625 33.757812 -11.863281 35.28125 -12.5625 C 36.8125 -13.269531 38.550781 -14.660156 40.5 -16.734375 L 52.203125 -10.875 C 47.328125 -2.707031 39.222656 1.375 27.890625 1.375 C 20.816406 1.375 14.75 -1.046875 9.6875 -5.890625 C 4.632812 -10.742188 2.109375 -16.582031 2.109375 -23.40625 C 2.109375 -30.226562 4.632812 -36.078125 9.6875 -40.953125 C 14.75 -45.828125 20.816406 -48.265625 27.890625 -48.265625 C 35.316406 -48.265625 41.363281 -46.113281 46.03125 -41.8125 C 50.695312 -37.519531 53.03125 -31.382812 53.03125 -23.40625 C 53.03125 -22.3125 53 -21.578125 52.9375 -21.203125 Z M 19.375 -30.171875 L 37.203125 -30.171875 C 36.835938 -32.609375 35.878906 -34.476562 34.328125 -35.78125 C 32.773438 -37.09375 30.78125 -37.75 28.34375 -37.75 C 25.65625 -37.75 23.519531 -37.046875 21.9375 -35.640625 C 20.351562 -34.242188 19.5 -32.421875 19.375 -30.171875 Z M 19.375 -30.171875 "/></g></g></g><g fill="#ffde59" fill-opacity="1"><g transform="translate(85.758773, 81.278321)"><g><path d="M 7.03125 -73.046875 C 8.925781 -74.929688 11.179688 -75.875 13.796875 -75.875 C 16.421875 -75.875 18.675781 -74.929688 20.5625 -73.046875 C 22.457031 -71.160156 23.40625 -68.90625 23.40625 -66.28125 C 23.40625 -63.65625 22.457031 -61.398438 20.5625 -59.515625 C 18.675781 -57.628906 16.421875 -56.6875 13.796875 -56.6875 C 11.179688 -56.6875 8.925781 -57.628906 7.03125 -59.515625 C 5.144531 -61.398438 4.203125 -63.65625 4.203125 -66.28125 C 4.203125 -68.90625 5.144531 -71.160156 7.03125 -73.046875 Z M 5.484375 -46.90625 L 5.484375 4.109375 C 5.484375 8.378906 3.988281 10.515625 1 10.515625 C 0.394531 10.515625 -0.238281 10.40625 -0.90625 10.1875 C -1.582031 9.976562 -2.132812 9.753906 -2.5625 9.515625 L -3.109375 9.140625 L -8.140625 22.21875 C -8.015625 22.28125 -7.613281 22.460938 -6.9375 22.765625 C -6.269531 23.066406 -5.769531 23.289062 -5.4375 23.4375 C -5.101562 23.59375 -4.539062 23.789062 -3.75 24.03125 C -2.957031 24.28125 -2.191406 24.46875 -1.453125 24.59375 C -0.722656 24.71875 0.1875 24.835938 1.28125 24.953125 C 2.375 25.078125 3.53125 25.140625 4.75 25.140625 C 7.800781 25.140625 10.484375 24.601562 12.796875 23.53125 C 15.109375 22.46875 16.875 21.035156 18.09375 19.234375 C 19.320312 17.441406 20.222656 15.554688 20.796875 13.578125 C 21.378906 11.597656 21.671875 9.476562 21.671875 7.21875 L 21.671875 -46.90625 Z M 5.484375 -46.90625 "/></g></g></g><g fill="#ffde59" fill-opacity="1"><g transform="translate(111.079166, 81.278321)"><g><path d="M 8.6875 -5.796875 C 4.300781 -10.585938 2.109375 -16.457031 2.109375 -23.40625 C 2.109375 -30.351562 4.300781 -36.234375 8.6875 -41.046875 C 13.070312 -45.859375 18.648438 -48.265625 25.421875 -48.265625 C 31.628906 -48.265625 36.75 -46.316406 40.78125 -42.421875 L 40.78125 -46.90625 L 56.953125 -46.90625 L 56.953125 0 L 40.953125 0 L 40.953125 -5.296875 L 40.78125 -5.296875 C 36.75 -0.847656 31.628906 1.375 25.421875 1.375 C 18.648438 1.375 13.070312 -1.015625 8.6875 -5.796875 Z M 22.4375 -31.359375 C 20.34375 -29.285156 19.296875 -26.632812 19.296875 -23.40625 C 19.296875 -20.175781 20.300781 -17.539062 22.3125 -15.5 C 24.320312 -13.457031 26.972656 -12.4375 30.265625 -12.4375 C 33.429688 -12.4375 36.035156 -13.472656 38.078125 -15.546875 C 40.117188 -17.617188 41.140625 -20.238281 41.140625 -23.40625 C 41.140625 -26.632812 40.085938 -29.285156 37.984375 -31.359375 C 35.878906 -33.429688 33.304688 -34.46875 30.265625 -34.46875 C 27.148438 -34.46875 24.539062 -33.429688 22.4375 -31.359375 Z M 22.4375 -31.359375 "/></g></g></g><g fill="#ffde59" fill-opacity="1"><g transform="translate(171.684014, 81.278321)"><g><path d="M 15.90625 -19.5625 C 18.832031 -19.5625 21.316406 -18.539062 23.359375 -16.5 C 25.398438 -14.457031 26.421875 -11.972656 26.421875 -9.046875 C 26.421875 -6.179688 25.398438 -3.726562 23.359375 -1.6875 C 21.316406 0.351562 18.832031 1.375 15.90625 1.375 C 13.039062 1.375 10.585938 0.351562 8.546875 -1.6875 C 6.503906 -3.726562 5.484375 -6.179688 5.484375 -9.046875 C 5.484375 -11.972656 6.503906 -14.457031 8.546875 -16.5 C 10.585938 -18.539062 13.039062 -19.5625 15.90625 -19.5625 Z M 15.90625 -19.5625 "/></g></g></g></g></g><g clip-path="url(#1967cfab61)"><path fill="#ffde59" d="M 512.144531 226.398438 L 655.53125 292.816406 L 512.695312 214.53125 L 512.457031 214.058594 L 512.144531 214.230469 L 511.832031 214.058594 L 511.59375 214.53125 L 368.757812 292.816406 L 512.144531 226.398438 " fill-opacity="1" fill-rule="nonzero"/></g><g transform="matrix(1, 0, 0, 1, 492, 193)"><g clip-path="url(#d2dd6c16c6)"><g fill="#ff3131" fill-opacity="1"><g transform="translate(0.527078, 84.096762)"><g><path d="M 16.46875 -20.25 C 19.5 -20.25 22.066406 -19.191406 24.171875 -17.078125 C 26.285156 -14.960938 27.34375 -12.394531 27.34375 -9.375 C 27.34375 -6.40625 26.285156 -3.863281 24.171875 -1.75 C 22.066406 0.363281 19.5 1.421875 16.46875 1.421875 C 13.5 1.421875 10.957031 0.363281 8.84375 -1.75 C 6.726562 -3.863281 5.671875 -6.40625 5.671875 -9.375 C 5.671875 -12.394531 6.726562 -14.960938 8.84375 -17.078125 C 10.957031 -19.191406 13.5 -20.25 16.46875 -20.25 Z M 16.46875 -20.25 "/></g></g></g></g></g></svg>