<svg xmlns="http://www.w3.org/2000/svg" xmlns:xlink="http://www.w3.org/1999/xlink" width="500" zoomAndPan="magnify" viewBox="0 0 375 374.999991" height="500" preserveAspectRatio="xMidYMid meet" version="1.0"><defs><g/><clipPath id="d66cc99dff"><path d="M 112.5 148.691406 L 262.5 148.691406 L 262.5 189.941406 L 112.5 189.941406 Z M 112.5 148.691406 " clip-rule="nonzero"/></clipPath></defs><g fill="#fbbf24" fill-opacity="1"><g transform="translate(134.87718, 209.816384)"><g><path d="M 8.3125 -10.234375 C 9.84375 -10.234375 11.140625 -9.695312 12.203125 -8.625 C 13.273438 -7.5625 13.8125 -6.265625 13.8125 -4.734375 C 13.8125 -3.234375 13.273438 -1.945312 12.203125 -0.875 C 11.140625 0.1875 9.84375 0.71875 8.3125 0.71875 C 6.820312 0.71875 5.539062 0.1875 4.46875 -0.875 C 3.40625 -1.945312 2.875 -3.234375 2.875 -4.734375 C 2.875 -6.265625 3.40625 -7.5625 4.46875 -8.625 C 5.539062 -9.695312 6.820312 -10.234375 8.3125 -10.234375 Z M 8.3125 -10.234375 "/></g></g></g><g fill="#fbbf24" fill-opacity="1"><g transform="translate(150.607335, 209.816384)"><g><path d="M 27.6875 -11.09375 L 9.890625 -11.09375 C 9.890625 -9.375 10.445312 -8.097656 11.5625 -7.265625 C 12.6875 -6.441406 13.898438 -6.03125 15.203125 -6.03125 C 16.578125 -6.03125 17.660156 -6.210938 18.453125 -6.578125 C 19.253906 -6.941406 20.164062 -7.664062 21.1875 -8.75 L 27.296875 -5.6875 C 24.742188 -1.414062 20.503906 0.71875 14.578125 0.71875 C 10.878906 0.71875 7.707031 -0.546875 5.0625 -3.078125 C 2.414062 -5.617188 1.09375 -8.671875 1.09375 -12.234375 C 1.09375 -15.804688 2.414062 -18.867188 5.0625 -21.421875 C 7.707031 -23.972656 10.878906 -25.25 14.578125 -25.25 C 18.472656 -25.25 21.640625 -24.125 24.078125 -21.875 C 26.515625 -19.625 27.734375 -16.410156 27.734375 -12.234375 C 27.734375 -11.660156 27.71875 -11.28125 27.6875 -11.09375 Z M 10.140625 -15.78125 L 19.453125 -15.78125 C 19.265625 -17.050781 18.765625 -18.03125 17.953125 -18.71875 C 17.140625 -19.40625 16.097656 -19.75 14.828125 -19.75 C 13.421875 -19.75 12.300781 -19.378906 11.46875 -18.640625 C 10.644531 -17.910156 10.203125 -16.957031 10.140625 -15.78125 Z M 10.140625 -15.78125 "/></g></g></g><g fill="#fbbf24" fill-opacity="1"><g transform="translate(178.481868, 209.816384)"><g><path d="M 3.671875 -38.203125 C 4.660156 -39.191406 5.84375 -39.6875 7.21875 -39.6875 C 8.59375 -39.6875 9.769531 -39.191406 10.75 -38.203125 C 11.738281 -37.210938 12.234375 -36.03125 12.234375 -34.65625 C 12.234375 -33.289062 11.738281 -32.113281 10.75 -31.125 C 9.769531 -30.132812 8.59375 -29.640625 7.21875 -29.640625 C 5.84375 -29.640625 4.660156 -30.132812 3.671875 -31.125 C 2.691406 -32.113281 2.203125 -33.289062 2.203125 -34.65625 C 2.203125 -36.03125 2.691406 -37.210938 3.671875 -38.203125 Z M 2.875 -24.53125 L 2.875 2.15625 C 2.875 4.382812 2.09375 5.5 0.53125 5.5 C 0.207031 5.5 -0.125 5.441406 -0.46875 5.328125 C -0.820312 5.210938 -1.113281 5.09375 -1.34375 4.96875 L -1.625 4.78125 L -4.25 11.625 C -4.1875 11.65625 -3.976562 11.75 -3.625 11.90625 C -3.28125 12.0625 -3.019531 12.179688 -2.84375 12.265625 C -2.664062 12.347656 -2.367188 12.453125 -1.953125 12.578125 C -1.546875 12.703125 -1.148438 12.796875 -0.765625 12.859375 C -0.378906 12.921875 0.0976562 12.984375 0.671875 13.046875 C 1.242188 13.109375 1.847656 13.140625 2.484375 13.140625 C 4.078125 13.140625 5.476562 12.859375 6.6875 12.296875 C 7.90625 11.742188 8.832031 11 9.46875 10.0625 C 10.101562 9.125 10.570312 8.132812 10.875 7.09375 C 11.175781 6.0625 11.328125 4.957031 11.328125 3.78125 L 11.328125 -24.53125 Z M 2.875 -24.53125 "/></g></g></g><g fill="#fbbf24" fill-opacity="1"><g transform="translate(191.725771, 209.816384)"><g><path d="M 4.53125 -3.03125 C 2.238281 -5.539062 1.09375 -8.609375 1.09375 -12.234375 C 1.09375 -15.867188 2.238281 -18.945312 4.53125 -21.46875 C 6.832031 -23.988281 9.753906 -25.25 13.296875 -25.25 C 16.546875 -25.25 19.222656 -24.226562 21.328125 -22.1875 L 21.328125 -24.53125 L 29.78125 -24.53125 L 29.78125 0 L 21.421875 0 L 21.421875 -2.765625 L 21.328125 -2.765625 C 19.222656 -0.441406 16.546875 0.71875 13.296875 0.71875 C 9.753906 0.71875 6.832031 -0.53125 4.53125 -3.03125 Z M 11.734375 -16.40625 C 10.640625 -15.320312 10.09375 -13.929688 10.09375 -12.234375 C 10.09375 -10.546875 10.617188 -9.164062 11.671875 -8.09375 C 12.722656 -7.03125 14.109375 -6.5 15.828125 -6.5 C 17.484375 -6.5 18.84375 -7.039062 19.90625 -8.125 C 20.976562 -9.207031 21.515625 -10.578125 21.515625 -12.234375 C 21.515625 -13.929688 20.960938 -15.320312 19.859375 -16.40625 C 18.765625 -17.488281 17.421875 -18.03125 15.828125 -18.03125 C 14.203125 -18.03125 12.835938 -17.488281 11.734375 -16.40625 Z M 11.734375 -16.40625 "/></g></g></g><g fill="#fbbf24" fill-opacity="1"><g transform="translate(223.425308, 209.816384)"><g><path d="M 8.3125 -10.234375 C 9.84375 -10.234375 11.140625 -9.695312 12.203125 -8.625 C 13.273438 -7.5625 13.8125 -6.265625 13.8125 -4.734375 C 13.8125 -3.234375 13.273438 -1.945312 12.203125 -0.875 C 11.140625 0.1875 9.84375 0.71875 8.3125 0.71875 C 6.820312 0.71875 5.539062 0.1875 4.46875 -0.875 C 3.40625 -1.945312 2.875 -3.234375 2.875 -4.734375 C 2.875 -6.265625 3.40625 -7.5625 4.46875 -8.625 C 5.539062 -9.695312 6.820312 -10.234375 8.3125 -10.234375 Z M 8.3125 -10.234375 "/></g></g></g><g clip-path="url(#d66cc99dff)"><path fill="#fbbf24" d="M 187.5 155.171875 L 262.5 189.914062 L 187.789062 148.964844 L 187.664062 148.71875 L 187.5 148.808594 L 187.335938 148.71875 L 187.210938 148.964844 L 112.5 189.914062 L 187.5 155.171875 " fill-opacity="1" fill-rule="nonzero"/></g></svg>